<?xml version="1.0" encoding="UTF-8" standalone="no"?><!DOCTYPE svg PUBLIC "-//W3C//DTD SVG 1.1//EN" "http://www.w3.org/Graphics/SVG/1.1/DTD/svg11.dtd"><svg width="100%" height="100%" viewBox="0 0 67 67" version="1.1" xmlns="http://www.w3.org/2000/svg" xmlns:xlink="http://www.w3.org/1999/xlink" xml:space="preserve" xmlns:serif="http://www.serif.com/" style="fill-rule:evenodd;clip-rule:evenodd;stroke-linejoin:round;stroke-miterlimit:2;"><g><path d="M4.167,66.667l62.5,-0l-0,-29.167l-62.5,0l-0,29.167Z" style="fill:#40b6e0;fill-opacity:0.7;"/><path d="M29.167,4.167l-16.667,16.666l16.667,0l-0,-16.666Z" style="fill:#9aa7b0;fill-opacity:0.8;"/><path d="M33.333,4.167l0,20.833l-20.833,0l0,8.333l41.667,0l-0,-29.166l-20.834,-0Z" style="fill:#9aa7b0;fill-opacity:0.8;"/></g><path d="M53.732,62.506c-2.864,-0 -5.319,-0.963 -7.366,-2.889c-2.046,-1.926 -3.07,-4.441 -3.07,-7.547c0,-3.125 1.049,-5.646 3.146,-7.562c2.097,-1.915 4.689,-2.873 7.774,-2.873c2.097,-0 3.862,0.464 5.293,1.391c1.432,0.928 2.541,2.097 3.328,3.509l-4.356,2.268c-0.403,-0.725 -0.983,-1.335 -1.739,-1.83c-0.757,-0.494 -1.599,-0.741 -2.526,-0.741c-1.634,0 -2.98,0.56 -4.038,1.679c-1.059,1.119 -1.588,2.506 -1.588,4.159c-0,1.654 0.529,3.04 1.588,4.159c1.058,1.12 2.404,1.679 4.038,1.679c1.069,0 1.991,-0.262 2.768,-0.786c0.776,-0.525 1.346,-1.2 1.709,-2.027l-5.294,0l0,-4.537l11.01,-0c0,3.771 -0.952,6.705 -2.858,8.802c-1.906,2.097 -4.512,3.146 -7.819,3.146Z" style="fill:#29424c;fill-opacity:0.84;"/><text x="5.675px" y="62.143px" style="font-family:'ProximaNova-Extrabld', 'Proxima Nova';font-weight:800;font-size:30.248px;fill:#29424c;fill-opacity:0.84;">L<tspan x="20.31px " y="62.143px ">O</tspan></text></svg>
